PathFileType	4	(X/Y/Z)	3_coords_data.trc
DataRate	CameraRate	NumFrames	NumMarkers	Units	OrigDataRate	OrigDataStartFrame	OrigNumFrames
30.0	30.0	6	21	m	30.0	52	62
Frame#	Time	THUMB_TIP	THUMB_IP	THUMB_MCP	THUMB_CMC	INDEX_TIP	INDEX_DIP	INDEX_PIP	INDEX_MCP	MIDDLE_TIP	MIDDLE_DIP	MIDDLE_PIP	MIDDLE_MCP	RING_TIP	RING_DIP	RING_PIP	RING_MCP	PINKY_TIP	PINKY_DIP	PINKY_PIP	PINKY_MCP	WRIST
X1	Y1	Z1	X2	Y2	Z2	X3	Y3	Z3	X4	Y4	Z4	X5	Y5	Z5	X6	Y6	Z6	X7	Y7	Z7	X8	Y8	Z8	X9	Y9	Z9	X10	Y10	Z10	X11	Y11	Z11	X12	Y12	Z12	X13	Y13	Z13	X14	Y14	Z14	X15	Y15	Z15	X16	Y16	Z16	X17	Y17	Z17	X18	Y18	Z18	X19	Y19	Z19	X20	Y20	Z20	X21	Y21	Z21
50	1.6999999999999926	0.501970633100128	-0.06637807319582506	-0.15928808087062107	0.490109677203714	-0.05458307211424526	-0.14353385366936317	0.47274455859359665	-0.04300291770360384	-0.12044332142165931	0.4662816828091384	-0.036887177183065695	-0.0767315500725122	0.5546169311014915	-0.08922179202175984	-0.16379901229531313	0.547358221449237	-0.07416954004318427	-0.15681754793905262	0.5356878293357925	-0.05508771359248643	-0.1453416741063589	0.5094922105059309	-0.03121260319531194	-0.12173225328238846	0.57330149679948	-0.09158242889454288	-0.15293702734535752	0.5665342291038754	-0.07705184748596841	-0.14450694479150206	0.5526184783804919	-0.05591142150671252	-0.13005551506222396	0.523422699173063	-0.033252363566689175	-0.10494931083415054	0.5757665932404802	-0.09304924505146506	-0.1265326000599879	0.5716286961020849	-0.07720638963371348	-0.1189906016852677	0.5620370693156943	-0.05680631003643724	-0.10840677312394886	0.5320284861468807	-0.03910783760045561	-0.08788922347411976	0.5766846969793193	-0.09311251277843946	-0.10099020887468568	0.5691744000293812	-0.08004442527602501	-0.09287722368099854	0.5575098382444965	-0.06516997640640407	-0.08373934711192388	0.5299555127809437	-0.047658842723385775	-0.06840954618744788	0.462283081001861	-0.023011742144276925	-0.051989820119430985
51	1.7333333333333258	0.5018665886471388	-0.06586985944292359	-0.15950448200058975	0.49009811275688675	-0.054152935891006254	-0.1436231508945685	0.47272303926900006	-0.04265938807220315	-0.12049686325847297	0.4661330878807054	-0.03688191531135607	-0.07675805498484045	0.5558083767032862	-0.08963750088342498	-0.163738572364225	0.5480156468895246	-0.07493279283117649	-0.15659399937853524	0.5359158269529768	-0.05617569951390233	-0.1450278573774102	0.509571969921491	-0.03234866404141537	-0.12153509952956493	0.5744836748513054	-0.09231444428862642	-0.15259066146690542	0.5671421839013185	-0.07812687641061208	-0.14405746579716971	0.5526901784671122	-0.05736026524561966	-0.12959036692933562	0.5234052318816699	-0.03458447432726666	-0.10469452043777683	0.5766963075837578	-0.09397299130361644	-0.12588054417375116	0.5720822871466571	-0.07827154441836776	-0.1183191037609902	0.5619996906618568	-0.058102156123734316	-0.10774947732743068	0.5319902822401946	-0.04009093061231467	-0.08750714555071443	0.5770469617372963	-0.09388768474890241	-0.09988024998062939	0.5693036297850022	-0.08086439059279657	-0.09191566464301643	0.5574276106649995	-0.06603952377022351	-0.08297164359237574	0.5298032248860757	-0.048355952271886854	-0.06796937508389955	0.4622830810018609	-0.023011742144276925	-0.051989820119430985
52	1.7666666666666588	0.5020999474203569	-0.06530859966790725	-0.15960656944596086	0.4903319714528577	-0.05365763433845172	-0.1436764172646356	0.47288796955132995	-0.04229834638511473	-0.12053568748243826	0.4660307188472693	-0.036840421554972025	-0.0767969269909683	0.5568717997015198	-0.08994252271617761	-0.16351489012424747	0.548742437658102	-0.07545886293350015	-0.15629428959058772	0.5363517102703452	-0.0569104776045225	-0.1446995878052867	0.5097092176791101	-0.03332118070799711	-0.12130388831898009	0.5754789557720865	-0.09289062097817333	-0.15200137038260214	0.5677543141130079	-0.0789153594436196	-0.14345608066957016	0.5529378470020603	-0.058363403358747123	-0.12905125670550582	0.5234633108245433	-0.03556376761956159	-0.10440219489210806	0.5773714699962548	-0.09475778922542144	-0.12506264157012648	0.5725128252426288	-0.07911712098584375	-0.1175285146679878	0.5621114987806807	-0.0590841720381208	-0.10700837477871322	0.5319991863809795	-0.0408676787752533	-0.08710538884326324	0.577261420597089	-0.09458292899567697	-0.0987804632839302	0.5694542625840946	-0.0815122785262688	-0.09095701263433204	0.5574439583251822	-0.06668521387399445	-0.08219785945576352	0.529693530494565	-0.04890528501671859	-0.06754619279125307	0.4622830810018609	-0.023011742144276925	-0.051989820119430985
54	1.8000000000000007	0.5024453068500878	-0.06484998437185766	-0.1596362097722741	0.4906590124700032	-0.053267087236894134	-0.14367000299837696	0.4731274983070366	-0.041989900568019434	-0.12055526588135446	0.46596648745086633	-0.03679189349588824	-0.07683352476785477	0.5574899772829455	-0.09056922236926651	-0.16297342560554595	0.5492860147618887	-0.0761104933126951	-0.15578731726919626	0.536766719080222	-0.057604282368514115	-0.14426354943378422	0.5099295631557744	-0.03406847119933781	-0.12103708288168524	0.5759946234616301	-0.09384620693083479	-0.15105717031381005	0.5681750251577661	-0.07986508367750669	-0.14260837898359874	0.5532490744672247	-0.05926874532686713	-0.12838106748319567	0.5235895968671659	-0.03636057986879593	-0.10405660932196953	0.5774349998381977	-0.09586152244830962	-0.1239827899918865	0.5726183988031741	-0.08016457144531694	-0.11653926369858586	0.5622124209034729	-0.06006360021819712	-0.10615434392627021	0.5320683831543508	-0.04146655084889586	-0.0866554317275019	0.577016324414426	-0.09570986132772341	-0.09760256640730564	0.5692983541868719	-0.08250542646922338	-0.0899164857653777	0.5573294313375695	-0.06752801320706384	-0.08135879934894885	0.5296083479333188	-0.04938684909589425	-0.06709965664729278	0.462283081001861	-0.023011742144276925	-0.051989820119430985
55	1.833333333333334	0.5029657821350451	-0.06428152203296997	-0.15963821327682137	0.4911131363518223	-0.05279315466640572	-0.14365283861157468	0.4734590800895804	-0.041640174990001555	-0.12057112849669555	0.46594209330309777	-0.03671969025370675	-0.07687703576539218	0.5580159042171883	-0.09106664338671441	-0.1623680531017831	0.5498233871657693	-0.07656698675899062	-0.15525169012338486	0.537242289440032	-0.05804143084926902	-0.14382673536412094	0.5101910712501571	-0.03458256297427731	-0.120771384434945	0.5763913934960099	-0.09466393756954988	-0.15006710234314624	0.5685745462095749	-0.08060582671098415	-0.14174445747574804	0.5536228004594737	-0.059892771486182855	-0.12771505291679874	0.523758029953294	-0.036911725792778155	-0.10371265840185784	0.5773653848359501	-0.09680821765874961	-0.12289330190212566	0.5726950447514292	-0.08101941460671042	-0.11555152952218656	0.562376886846181	-0.06079864440448543	-0.1053125818774735	0.5321725150869552	-0.04188070598314306	-0.0862199559052092	0.5766960167267311	-0.09672567799538531	-0.09651047221544362	0.5691240212858375	-0.08337065605972355	-0.08894024935603734	0.5572489185020122	-0.06821815464036396	-0.08056196471000787	0.5295659881306112	-0.049730543039062436	-0.06667862813944303	0.4622830810018608	-0.023011742144276925	-0.051989820119430985
56	1.8666666666666674	0.5036259955448641	-0.06359460868577296	-0.15963160535378723	0.49167111618235926	-0.05223690823181679	-0.14362899619696023	0.4738656918234895	-0.041255465745921704	-0.12058133288092004	0.46595317483978405	-0.036629393651806064	-0.07692492977710697	0.5584679212775774	-0.0914198515728673	-0.16173438202043267	0.5503482293989519	-0.07683390804335438	-0.154711501190599	0.5377587526969202	-0.058243235984848235	-0.14340213242916594	0.5104834773514315	-0.034878018100850894	-0.12051628435527739	0.5766798804774789	-0.09532978051974667	-0.1490909195650585	0.5689372430081551	-0.08114835244939528	-0.14090931441056265	0.5540224895437509	-0.06027361358620009	-0.1270816263720852	0.5239591802222657	-0.037234922925746095	-0.10338428292830193	0.5772035987755771	-0.0975786956043401	-0.12184827478287585	0.5727488979891543	-0.08168002037169492	-0.11461033538341131	0.5625871289855795	-0.061305620136329675	-0.10452062553787372	0.532300456482571	-0.042133587910232057	-0.08581577368021431	0.5763241757455349	-0.09760355339143467	-0.0955503992789063	0.5689363629993074	-0.0840944833396658	-0.0880720806735592	0.5571965318040416	-0.06875555167402975	-0.07984374196737964	0.5295604554209558	-0.049950048104239614	-0.06629812390710421	0.4622830810018608	-0.023011742144276925	-0.051989820119430985
